<?xml version="1.0" standalone="no"?><!DOCTYPE svg PUBLIC "-//W3C//DTD SVG 1.1//EN" "http://www.w3.org/Graphics/SVG/1.1/DTD/svg11.dtd"><svg t="1600526287285" class="icon" viewBox="0 0 1024 1024" version="1.1" xmlns="http://www.w3.org/2000/svg" p-id="5419" xmlns:xlink="http://www.w3.org/1999/xlink" width="16" height="16"><defs><style type="text/css"></style></defs><path d="M512 512m-512 0a512 512 0 1 0 1024 0 512 512 0 1 0-1024 0Z" fill="#d81e06" p-id="5420"></path><path d="M573.44 512l117.76-112.64c15.36-15.36 15.36-40.96 0-61.44-15.36-15.36-40.96-15.36-61.44 0l-117.76 117.76-117.76-117.76c-15.36-15.36-40.96-15.36-61.44 0-15.36 15.36-15.36 40.96 0 61.44l117.76 112.64-117.76 112.64c-15.36 15.36-15.36 40.96 0 61.44 15.36 15.36 40.96 15.36 61.44 0l117.76-117.76 117.76 117.76c15.36 15.36 40.96 15.36 61.44 0 15.36-15.36 15.36-40.96 0-61.44l-117.76-112.64z" fill="#FFFFFF" p-id="5421"></path></svg>