<?xml version="1.0" standalone="no"?><!DOCTYPE svg PUBLIC "-//W3C//DTD SVG 1.1//EN" "http://www.w3.org/Graphics/SVG/1.1/DTD/svg11.dtd"><svg t="1600602972134" class="icon" viewBox="0 0 1024 1024" version="1.1" xmlns="http://www.w3.org/2000/svg" p-id="4018" xmlns:xlink="http://www.w3.org/1999/xlink" width="16" height="16"><defs><style type="text/css"></style></defs><path d="M512 512m-512 0a512 512 0 1 0 1024 0 512 512 0 1 0-1024 0Z" fill="#E6EEFA" p-id="4019"></path><path d="M512 512m-433.230769 0a433.230769 433.230769 0 1 0 866.461538 0 433.230769 433.230769 0 1 0-866.461538 0Z" fill="#52D86C" p-id="4020"></path><path d="M345.540923 471.217231a29.538462 29.538462 0 0 0-41.235692 42.299077l151.433846 147.63323a29.538462 29.538462 0 0 0 41.235692 0l242.412308-236.307692a29.538462 29.538462 0 1 0-41.235692-42.299077L476.356923 598.764308l-130.816-127.547077z" fill="#FFFFFF" p-id="4021"></path></svg>